<svg xmlns="http://www.w3.org/2000/svg" width="313.595" height="49.758" viewBox="0 0 313.595 49.758">
  <g id="Group_73" data-name="Group 73" transform="translate(-803.999 -1541)">
    <g id="shiva" transform="translate(741.004 1541)">
      <path id="Path_15" data-name="Path 15" d="M269.111,1.5Z" transform="translate(-183.624 -1.336)" fill="#f7730f"/>
      <path id="Path_16" data-name="Path 16" d="M98.022,30.507H89.169a8.174,8.174,0,0,0-.394-1.644h6.1a.982.982,0,0,0,0-1.964H87.765a8.262,8.262,0,0,0-5.237-3.4V19.918c2.2.947,6.326,2.12,9.353-.6,4.91-4.419,1.8-9.81-1.426-11.58A8.821,8.821,0,0,1,85.487.164a5.372,5.372,0,0,0-.465,6.66l3.15,4.6a4.566,4.566,0,0,1,.033,5.115h0a4.566,4.566,0,0,1-5.677,1.629v-4.47l.555-1.745L81,0,78.917,11.948l.556,1.747v4.467a4.567,4.567,0,0,1-5.678-1.629h0a4.566,4.566,0,0,1,.033-5.115l3.15-4.6a5.372,5.372,0,0,0-.465-6.66,8.821,8.821,0,0,1-4.968,7.57c-3.224,1.771-6.336,7.161-1.426,11.58,3.027,2.725,7.154,1.55,9.354.6V23.5a8.26,8.26,0,0,0-5.237,3.4H67.123a.982.982,0,1,0,0,1.964h6.1a8.169,8.169,0,0,0-.394,1.644H63.977a.982.982,0,0,0,0,1.964H72.8a8.186,8.186,0,0,0,.345,1.644H67.123a.982.982,0,0,0,0,1.964h6.961A8.261,8.261,0,0,0,79.473,39.7V48.23a1.528,1.528,0,1,0,3.055,0V39.7a8.262,8.262,0,0,0,5.389-3.621h6.96a.982.982,0,0,0,0-1.964H88.851a8.184,8.184,0,0,0,.345-1.644h8.826a.982.982,0,1,0,0-1.964Zm-18.55,5.938a5.079,5.079,0,0,1,0-9.688v9.688Zm3.055,0V26.758a5.078,5.078,0,0,1,0,9.686Z" fill="#f7730f"/>
    </g>
    <path id="Path_18" data-name="Path 18" d="M17.578-18.34h-6.65V0H7.251V-18.34H.659v-2.988H17.578Zm5.962,4.219a5.572,5.572,0,0,1,4.409-2.021q5.068,0,5.142,5.786V0h-3.56V-10.225a3.13,3.13,0,0,0-.71-2.322,2.9,2.9,0,0,0-2.087-.681,3.429,3.429,0,0,0-3.193,1.9V0H19.98V-22.5h3.56ZM43.667.293a7.364,7.364,0,0,1-5.486-2.131,7.732,7.732,0,0,1-2.1-5.676v-.439a9.511,9.511,0,0,1,.916-4.241A6.968,6.968,0,0,1,39.565-15.1a6.8,6.8,0,0,1,3.691-1.04,6.221,6.221,0,0,1,5,2.065,8.734,8.734,0,0,1,1.765,5.845V-6.8H39.668a4.76,4.76,0,0,0,1.311,3.105,3.936,3.936,0,0,0,2.893,1.143,4.82,4.82,0,0,0,3.984-1.978L49.775-2.7a6.408,6.408,0,0,1-2.542,2.2A7.957,7.957,0,0,1,43.667.293Zm-.425-13.579a3,3,0,0,0-2.366,1.025A5.315,5.315,0,0,0,39.727-9.4h6.782v-.264a4.327,4.327,0,0,0-.952-2.7A2.975,2.975,0,0,0,43.242-13.286ZM66.665-7.764A9.437,9.437,0,0,1,65-1.9,5.348,5.348,0,0,1,60.513.293a5.384,5.384,0,0,1-4.175-1.714V6.094h-3.56V-15.85H56.06l.146,1.611a5.228,5.228,0,0,1,4.263-1.9,5.4,5.4,0,0,1,4.548,2.161,9.689,9.689,0,0,1,1.648,6ZM63.12-8.071a6.61,6.61,0,0,0-.945-3.765,3.072,3.072,0,0,0-2.7-1.392,3.275,3.275,0,0,0-3.135,1.8v7.031A3.306,3.306,0,0,0,59.5-2.549a3.068,3.068,0,0,0,2.659-1.37A7.277,7.277,0,0,0,63.12-8.071ZM77.974-12.6a8.808,8.808,0,0,0-1.45-.117,3.265,3.265,0,0,0-3.3,1.875V0h-3.56V-15.85h3.4l.088,1.772a4.011,4.011,0,0,1,3.574-2.065,3.332,3.332,0,0,1,1.26.205Zm1.055,4.526a9.346,9.346,0,0,1,.923-4.2,6.74,6.74,0,0,1,2.593-2.871,7.305,7.305,0,0,1,3.838-1,6.923,6.923,0,0,1,5.208,2.065A8.124,8.124,0,0,1,93.75-8.6l.015.835a9.429,9.429,0,0,1-.9,4.189A6.659,6.659,0,0,1,90.286-.718,7.359,7.359,0,0,1,86.411.293a6.875,6.875,0,0,1-5.369-2.234A8.556,8.556,0,0,1,79.028-7.9Zm3.56.308A6.386,6.386,0,0,0,83.6-3.933a3.286,3.286,0,0,0,2.813,1.384,3.25,3.25,0,0,0,2.805-1.406,7.054,7.054,0,0,0,1-4.116,6.3,6.3,0,0,0-1.033-3.809,3.3,3.3,0,0,0-2.805-1.406A3.267,3.267,0,0,0,83.613-11.9,6.921,6.921,0,0,0,82.588-7.764Zm23.789,6.211A5.521,5.521,0,0,1,101.924.293a4.92,4.92,0,0,1-3.9-1.509,6.418,6.418,0,0,1-1.326-4.365V-15.85h3.56V-5.625q0,3.018,2.5,3.018a3.518,3.518,0,0,0,3.5-1.86V-15.85h3.56V0h-3.354Zm6.4-6.489a9.423,9.423,0,0,1,1.7-5.881,5.444,5.444,0,0,1,4.556-2.219,5.173,5.173,0,0,1,4.072,1.758V-22.5h3.56V0h-3.223l-.176-1.641A5.247,5.247,0,0,1,119,.293a5.414,5.414,0,0,1-4.5-2.241A9.768,9.768,0,0,1,112.778-8.042Zm3.56.308a6.6,6.6,0,0,0,.93,3.772,3.018,3.018,0,0,0,2.644,1.355,3.362,3.362,0,0,0,3.193-1.948v-6.768a3.311,3.311,0,0,0-3.164-1.9,3.04,3.04,0,0,0-2.666,1.37A7.347,7.347,0,0,0,116.338-7.734Zm17.549-6.387a5.572,5.572,0,0,1,4.409-2.021q5.068,0,5.142,5.786V0h-3.56V-10.225a3.13,3.13,0,0,0-.71-2.322,2.9,2.9,0,0,0-2.087-.681,3.429,3.429,0,0,0-3.193,1.9V0h-3.56V-22.5h3.56ZM150.82,0h-3.56V-15.85h3.56Zm-3.779-19.966a1.889,1.889,0,0,1,.52-1.362,1.964,1.964,0,0,1,1.487-.542,1.989,1.989,0,0,1,1.494.542,1.875,1.875,0,0,1,.527,1.362,1.831,1.831,0,0,1-.527,1.34,2,2,0,0,1-1.494.535,1.979,1.979,0,0,1-1.487-.535A1.845,1.845,0,0,1,147.041-19.966ZM158-15.85l.1,1.831a5.7,5.7,0,0,1,4.614-2.124q4.951,0,5.039,5.669V0h-3.56V-10.269a3.264,3.264,0,0,0-.652-2.234,2.742,2.742,0,0,0-2.131-.725,3.43,3.43,0,0,0-3.208,1.948V0h-3.56V-15.85Zm12.715,7.808a9.423,9.423,0,0,1,1.7-5.881,5.444,5.444,0,0,1,4.556-2.219,5.173,5.173,0,0,1,4.072,1.758V-22.5h3.56V0h-3.223L181.2-1.641A5.247,5.247,0,0,1,176.938.293a5.414,5.414,0,0,1-4.5-2.241A9.768,9.768,0,0,1,170.713-8.042Zm3.56.308a6.6,6.6,0,0,0,.93,3.772,3.018,3.018,0,0,0,2.644,1.355,3.362,3.362,0,0,0,3.193-1.948v-6.768a3.311,3.311,0,0,0-3.164-1.9,3.04,3.04,0,0,0-2.666,1.37A7.347,7.347,0,0,0,174.272-7.734Zm23.643,6.182A5.521,5.521,0,0,1,193.462.293a4.92,4.92,0,0,1-3.9-1.509,6.418,6.418,0,0,1-1.326-4.365V-15.85h3.56V-5.625q0,3.018,2.5,3.018a3.518,3.518,0,0,0,3.5-1.86V-15.85h3.56V0H198Zm9.287-2.2a2.033,2.033,0,0,1,1.538.564,1.959,1.959,0,0,1,.542,1.414,1.89,1.89,0,0,1-.542,1.384A2.064,2.064,0,0,1,207.2.161a2.07,2.07,0,0,1-1.509-.542,1.858,1.858,0,0,1-.557-1.392,1.959,1.959,0,0,1,.542-1.414A2.014,2.014,0,0,1,207.2-3.75Zm12.671,1.2a3.218,3.218,0,0,0,2.212-.776,2.652,2.652,0,0,0,.938-1.919h3.354a5.228,5.228,0,0,1-.923,2.761A6.053,6.053,0,0,1,223.11-.454a6.985,6.985,0,0,1-3.193.747,6.758,6.758,0,0,1-5.273-2.153A8.541,8.541,0,0,1,212.7-7.808v-.366a8.4,8.4,0,0,1,1.934-5.793,6.7,6.7,0,0,1,5.273-2.175,6.512,6.512,0,0,1,4.607,1.648,5.9,5.9,0,0,1,1.868,4.329h-3.354a3.26,3.26,0,0,0-.93-2.241,2.993,2.993,0,0,0-2.219-.879,3.132,3.132,0,0,0-2.666,1.252,6.391,6.391,0,0,0-.952,3.8v.571a6.5,6.5,0,0,0,.93,3.845A3.13,3.13,0,0,0,219.873-2.549ZM228.4-8.071a9.346,9.346,0,0,1,.923-4.2,6.74,6.74,0,0,1,2.593-2.871,7.305,7.305,0,0,1,3.838-1,6.923,6.923,0,0,1,5.208,2.065A8.124,8.124,0,0,1,243.12-8.6l.015.835a9.429,9.429,0,0,1-.9,4.189,6.659,6.659,0,0,1-2.578,2.856A7.359,7.359,0,0,1,235.781.293a6.875,6.875,0,0,1-5.369-2.234A8.556,8.556,0,0,1,228.4-7.9Zm3.56.308a6.386,6.386,0,0,0,1.011,3.831,3.286,3.286,0,0,0,2.813,1.384,3.25,3.25,0,0,0,2.805-1.406,7.054,7.054,0,0,0,1-4.116,6.3,6.3,0,0,0-1.033-3.809,3.3,3.3,0,0,0-2.805-1.406,3.267,3.267,0,0,0-2.769,1.384A6.921,6.921,0,0,0,231.958-7.764Zm17.534-8.086.1,1.655a5.7,5.7,0,0,1,4.57-1.948,4.381,4.381,0,0,1,4.351,2.432,5.622,5.622,0,0,1,4.863-2.432,4.942,4.942,0,0,1,3.9,1.45,6.385,6.385,0,0,1,1.311,4.277V0h-3.56V-10.312a3.152,3.152,0,0,0-.659-2.212,2.886,2.886,0,0,0-2.183-.7,2.964,2.964,0,0,0-1.985.652,3.438,3.438,0,0,0-1.077,1.707L259.146,0h-3.56V-10.43a2.539,2.539,0,0,0-2.856-2.8,3.133,3.133,0,0,0-3.032,1.743V0h-3.56V-15.85Z" transform="translate(849 1577)"/>
  </g>
</svg>
